<?xml version="1.0" encoding="UTF-8"?>
<svg width="40px" height="40px" viewBox="0 0 40 40" version="1.1" xmlns="http://www.w3.org/2000/svg" xmlns:xlink="http://www.w3.org/1999/xlink">
    <!-- Generator: Sketch 51.2 (57519) - http://www.bohemiancoding.com/sketch -->
    <title>refresh - FontAwesome</title>
    <desc>Created with Sketch.</desc>
    <defs></defs>
    <g id="Page-1" stroke="none" stroke-width="1" fill="none" fill-rule="evenodd">
        <g id="043-copy" transform="translate(-986.000000, -546.000000)" fill="#757575">
            <g id="Group-3" transform="translate(972.000000, 546.000000)">
                <path d="M53.3489583,24.1666667 C53.3489583,24.21875 53.3489583,24.296875 53.3229167,24.3489583 C51.109375,33.5677083 43.5052083,40 33.8958333,40 C28.8177083,40 23.8958333,37.9947917 20.1979167,34.4791667 L16.8385417,37.8385417 C16.5260417,38.1510417 16.109375,38.3333333 15.6666667,38.3333333 C14.7552083,38.3333333 14,37.578125 14,36.6666667 L14,25 C14,24.0885417 14.7552083,23.3333333 15.6666667,23.3333333 L27.3333333,23.3333333 C28.2447917,23.3333333 29,24.0885417 29,25 C29,25.4427083 28.8177083,25.859375 28.5052083,26.171875 L24.9375,29.7395833 C27.3854167,32.03125 30.640625,33.3333333 34,33.3333333 C38.6354167,33.3333333 42.9322917,30.9375 45.3541667,26.9791667 C45.9791667,25.9635417 46.2916667,24.9739583 46.734375,23.9322917 C46.8645833,23.5677083 47.125,23.3333333 47.515625,23.3333333 L52.515625,23.3333333 C52.984375,23.3333333 53.3489583,23.7239583 53.3489583,24.1666667 Z M54,3.33333333 L54,15 C54,15.9114583 53.2447917,16.6666667 52.3333333,16.6666667 L40.6666667,16.6666667 C39.7552083,16.6666667 39,15.9114583 39,15 C39,14.5572917 39.1822917,14.140625 39.4947917,13.828125 L43.0885417,10.234375 C40.6145833,7.94270833 37.359375,6.66666667 34,6.66666667 C29.3645833,6.66666667 25.0677083,9.0625 22.6458333,13.0208333 C22.0208333,14.0364583 21.7083333,15.0260417 21.265625,16.0677083 C21.1354167,16.4322917 20.875,16.6666667 20.484375,16.6666667 L15.3020833,16.6666667 C14.8333333,16.6666667 14.46875,16.2760417 14.46875,15.8333333 C14.46875,15.78125 14.46875,15.703125 14.46875,15.6510417 C16.7083333,6.40625 24.390625,0 34,0 C39.1041667,0 44.078125,2.03125 47.7760417,5.52083333 L51.1614583,2.16145833 C51.4739583,1.84895833 51.890625,1.66666667 52.3333333,1.66666667 C53.2447917,1.66666667 54,2.421875 54,3.33333333 Z" id="refresh---FontAwesome"></path>
            </g>
        </g>
    </g>
</svg>