<?xml version="1.0" encoding="UTF-8"?>
<svg width="40px" height="34px" viewBox="0 0 40 34" version="1.1" xmlns="http://www.w3.org/2000/svg" xmlns:xlink="http://www.w3.org/1999/xlink">
    <!-- Generator: Sketch 51.2 (57519) - http://www.bohemiancoding.com/sketch -->
    <title>shopping-cart - FontAwesome</title>
    <desc>Created with Sketch.</desc>
    <defs></defs>
    <g id="Page-1" stroke="none" stroke-width="1" fill="none" fill-rule="evenodd">
        <g id="043-copy" transform="translate(-700.000000, -546.000000)" fill="#757575">
            <g id="Group-2" transform="translate(638.000000, 546.000000)">
                <path d="M77.3846154,30.9090909 C77.3846154,32.5994318 75.9903846,34 74.3076923,34 C72.625,34 71.2307692,32.5994318 71.2307692,30.9090909 C71.2307692,29.21875 72.625,27.8181818 74.3076923,27.8181818 C75.9903846,27.8181818 77.3846154,29.21875 77.3846154,30.9090909 Z M98.9230769,30.9090909 C98.9230769,32.5994318 97.5288462,34 95.8461538,34 C94.1634615,34 92.7692308,32.5994318 92.7692308,30.9090909 C92.7692308,29.21875 94.1634615,27.8181818 95.8461538,27.8181818 C97.5288462,27.8181818 98.9230769,29.21875 98.9230769,30.9090909 Z M102,4.63636364 L102,17 C102,17.7727273 101.399038,18.4488636 100.629808,18.5454545 L75.5336538,21.4914773 C75.6538462,22.046875 75.8461538,22.6022727 75.8461538,23.1818182 C75.8461538,23.7372159 75.5096154,24.2443182 75.2692308,24.7272727 L97.3846154,24.7272727 C98.2259615,24.7272727 98.9230769,25.4275568 98.9230769,26.2727273 C98.9230769,27.1178977 98.2259615,27.8181818 97.3846154,27.8181818 L72.7692308,27.8181818 C71.9278846,27.8181818 71.2307692,27.1178977 71.2307692,26.2727273 C71.2307692,25.5241477 72.3125,23.7130682 72.6971154,22.9644886 L68.4423077,3.09090909 L63.5384615,3.09090909 C62.6971154,3.09090909 62,2.390625 62,1.54545455 C62,0.700284091 62.6971154,0 63.5384615,0 L69.6923077,0 C71.3028846,0 71.3509615,1.93181818 71.5913462,3.09090909 L100.461538,3.09090909 C101.302885,3.09090909 102,3.79119318 102,4.63636364 Z" id="shopping-cart---FontAwesome"></path>
            </g>
        </g>
    </g>
</svg>