<?xml version="1.0" encoding="UTF-8"?>
<svg width="40px" height="33px" viewBox="0 0 40 33" version="1.1" xmlns="http://www.w3.org/2000/svg" xmlns:xlink="http://www.w3.org/1999/xlink">
    <!-- Generator: Sketch 51.2 (57519) - http://www.bohemiancoding.com/sketch -->
    <title>truck - FontAwesome</title>
    <desc>Created with Sketch.</desc>
    <defs></defs>
    <g id="Page-1" stroke="none" stroke-width="1" fill="none" fill-rule="evenodd">
        <g id="043-copy" transform="translate(-414.000000, -546.000000)" fill="#757575">
            <g id="Group" transform="translate(351.000000, 546.000000)">
                <path d="M76.3333333,27 C76.3333333,25.359375 74.9907407,24 73.3703704,24 C71.75,24 70.4074074,25.359375 70.4074074,27 C70.4074074,28.640625 71.75,30 73.3703704,30 C74.9907407,30 76.3333333,28.640625 76.3333333,27 Z M67.4444444,15 L76.3333333,15 L76.3333333,9 L72.6759259,9 C72.5833333,9 72.2361111,9.140625 72.1666667,9.2109375 L67.6527778,13.78125 C67.5833333,13.8515625 67.4444444,14.203125 67.4444444,14.296875 L67.4444444,15 Z M97.0740741,27 C97.0740741,25.359375 95.7314815,24 94.1111111,24 C92.4907407,24 91.1481481,25.359375 91.1481481,27 C91.1481481,28.640625 92.4907407,30 94.1111111,30 C95.7314815,30 97.0740741,28.640625 97.0740741,27 Z M103,1.5 L103,25.5 C103,27.234375 101.194444,27 100.037037,27 C100.037037,30.3046875 97.375,33 94.1111111,33 C90.8472222,33 88.1851852,30.3046875 88.1851852,27 L79.2962963,27 C79.2962963,30.3046875 76.6342593,33 73.3703704,33 C70.1064815,33 67.4444444,30.3046875 67.4444444,27 L65.962963,27 C64.8055556,27 63,27.234375 63,25.5 C63,24.6796875 63.6712963,24 64.4814815,24 L64.4814815,16.5 C64.4814815,14.8359375 64.25,12.984375 65.5231481,11.6953125 L70.1064815,7.0546875 C70.6851852,6.46875 71.7962963,6 72.6296296,6 L76.3333333,6 L76.3333333,1.5 C76.3333333,0.6796875 77.0046296,0 77.8148148,0 L101.518519,0 C102.328704,0 103,0.6796875 103,1.5 Z" id="truck---FontAwesome"></path>
            </g>
        </g>
    </g>
</svg>