<?xml version="1.0" encoding="UTF-8"?>
<svg width="21px" height="15px" viewBox="0 0 21 15" version="1.1" xmlns="http://www.w3.org/2000/svg" xmlns:xlink="http://www.w3.org/1999/xlink">
    <!-- Generator: Sketch 48.2 (47327) - http://www.bohemiancoding.com/sketch -->
    <title>US</title>
    <desc>Created with Sketch.</desc>
    <defs>
        <rect id="path-1" x="0" y="0" width="20" height="14" rx="2"></rect>
        <rect id="path-3" x="0" y="0" width="9" height="6"></rect>
        <filter x="-5.6%" y="-8.3%" width="111.1%" height="116.7%" filterUnits="objectBoundingBox" id="filter-4">
            <feMorphology radius="1" operator="erode" in="SourceAlpha" result="shadowSpreadInner1"></feMorphology>
            <feOffset dx="0" dy="0" in="shadowSpreadInner1" result="shadowOffsetInner1"></feOffset>
            <feComposite in="shadowOffsetInner1" in2="SourceAlpha" operator="arithmetic" k2="-1" k3="1" result="shadowInnerInner1"></feComposite>
            <feColorMatrix values="0 0 0 0 0   0 0 0 0 0   0 0 0 0 0  0 0 0 0.2 0" type="matrix" in="shadowInnerInner1"></feColorMatrix>
        </filter>
        <rect id="path-5" x="1" y="1" width="19" height="13" rx="1"></rect>
    </defs>
    <g id="033" stroke="none" stroke-width="1" fill="none" fill-rule="evenodd" transform="translate(-1107.000000, -28.000000)">
        <g id="Group-2" transform="translate(1095.000000, 21.000000)">
            <g id="US" transform="translate(12.000000, 7.000000)">
                <mask id="mask-2" fill="white">
                    <use xlink:href="#path-1"></use>
                </mask>
                <use id="background" fill="#FFFFFF" xlink:href="#path-1"></use>
                <g id="rectangle" mask="url(#mask-2)">
                    <use fill="#435DB0" fill-rule="evenodd" xlink:href="#path-3"></use>
                    <use fill="black" fill-opacity="1" filter="url(#filter-4)" xlink:href="#path-3"></use>
                </g>
                <path d="M1,1 L1,2 L1.85714286,2 L1.85714286,1 L1,1 L1,1 Z M2.71428571,1 L2.71428571,2 L3.57142857,2 L3.57142857,1 L2.71428571,1 L2.71428571,1 Z M4.42857143,1 L4.42857143,2 L5.28571429,2 L5.28571429,1 L4.42857143,1 L4.42857143,1 Z M6.14285714,1 L6.14285714,2 L7,2 L7,1 L6.14285714,1 L6.14285714,1 Z M5.28571429,2 L5.28571429,3 L6.14285714,3 L6.14285714,2 L5.28571429,2 L5.28571429,2 Z M3.57142857,2 L3.57142857,3 L4.42857143,3 L4.42857143,2 L3.57142857,2 L3.57142857,2 Z M1.85714286,2 L1.85714286,3 L2.71428571,3 L2.71428571,2 L1.85714286,2 L1.85714286,2 Z M1,3 L1,4 L1.85714286,4 L1.85714286,3 L1,3 L1,3 Z M2.71428571,3 L2.71428571,4 L3.57142857,4 L3.57142857,3 L2.71428571,3 L2.71428571,3 Z M4.42857143,3 L4.42857143,4 L5.28571429,4 L5.28571429,3 L4.42857143,3 L4.42857143,3 Z M6.14285714,3 L6.14285714,4 L7,4 L7,3 L6.14285714,3 L6.14285714,3 Z M1,5 L1,6 L1.85714286,6 L1.85714286,5 L1,5 L1,5 Z M2.71428571,5 L2.71428571,6 L3.57142857,6 L3.57142857,5 L2.71428571,5 L2.71428571,5 Z M4.42857143,5 L4.42857143,6 L5.28571429,6 L5.28571429,5 L4.42857143,5 L4.42857143,5 Z M6.14285714,5 L6.14285714,6 L7,6 L7,5 L6.14285714,5 L6.14285714,5 Z M5.28571429,4 L5.28571429,5 L6.14285714,5 L6.14285714,4 L5.28571429,4 L5.28571429,4 Z M3.57142857,4 L3.57142857,5 L4.42857143,5 L4.42857143,4 L3.57142857,4 L3.57142857,4 Z M1.85714286,4 L1.85714286,5 L2.71428571,5 L2.71428571,4 L1.85714286,4 L1.85714286,4 Z" id="stars" fill="#A7B6E6" mask="url(#mask-2)"></path>
                <path d="M8.57142857,0 L8.57142857,0.933333333 L20,0.933333333 L20,0 L8.57142857,0 L8.57142857,0 Z M8.57142857,1.86666667 L8.57142857,2.8 L20,2.8 L20,1.86666667 L8.57142857,1.86666667 L8.57142857,1.86666667 Z M8.57142857,3.73333333 L8.57142857,4.66666667 L20,4.66666667 L20,3.73333333 L8.57142857,3.73333333 L8.57142857,3.73333333 Z M8.57142857,5.6 L8.57142857,6.53333333 L20,6.53333333 L20,5.6 L8.57142857,5.6 L8.57142857,5.6 Z M0,7.46666667 L0,8.4 L20,8.4 L20,7.46666667 L0,7.46666667 L0,7.46666667 Z M0,9.33333333 L0,10.2666667 L20,10.2666667 L20,9.33333333 L0,9.33333333 L0,9.33333333 Z M0,11.2 L0,12.1333333 L20,12.1333333 L20,11.2 L0,11.2 L0,11.2 Z M0,13.0666667 L0,14 L20,14 L20,13.0666667 L0,13.0666667 L0,13.0666667 Z" id="stripe" fill="#ED4C49" mask="url(#mask-2)"></path>
                <mask id="mask-6" fill="white">
                    <use xlink:href="#path-5"></use>
                </mask>
                <use id="overlay" stroke-opacity="0.156646286" stroke="#2F343A" xlink:href="#path-5"></use>
            </g>
        </g>
    </g>
</svg>